STARTFONT 2.1
COMMENT
COMMENT Converted from OpenType font "Q:\font stuff\winfont\76London.otf" by "otf2bdf 3.0".
COMMENT
FONT -FreeType-76London-Medium-R-Normal--34-340-72-72-P-142-ISO10646-1
SIZE 34 72 72
FONTBOUNDINGBOX 35 40 -1 -7
STARTPROPERTIES 19
FOUNDRY "FreeType"
FAMILY_NAME "76London"
WEIGHT_NAME "Medium"
SLANT "R"
SETWIDTH_NAME "Normal"
ADD_STYLE_NAME ""
PIXEL_SIZE 34
POINT_SIZE 340
RESOLUTION_X 72
RESOLUTION_Y 72
SPACING "P"
AVERAGE_WIDTH 142
CHARSET_REGISTRY "ISO10646"
CHARSET_ENCODING "1"
FONT_ASCENT 33
FONT_DESCENT 7
COPYRIGHT "Copyright © 1997 [T-26] 1110 N. Milwaukee Ave. IL 60622. T0279 ID#5092439 Designer: Peter Bruhn"
_OTF_FONTFILE "Q:\font stuff\winfont\76London.otf"
_OTF_PSNAME "76London"
ENDPROPERTIES
CHARS 211
STARTCHAR 0020
ENCODING 32
SWIDTH 294 0
DWIDTH 10 0
BBX 0 0 0 0
BITMAP
ENDCHAR
STARTCHAR 0021
ENCODING 33
SWIDTH 294 0
DWIDTH 10 0
BBX 6 26 2 0
BITMAP
FC
FC
FC
FC
FC
FC
FC
FC
FC
FC
FC
FC
FC
FC
FC
FC
FC
FC
FC
FC
00
78
FC
FC
FC
FC
ENDCHAR
STARTCHAR 0022
ENCODING 34
SWIDTH 441 0
DWIDTH 15 0
BBX 11 8 2 18
BITMAP
FBE0
FBE0
FBE0
71C0
71C0
71C0
71C0
71C0
ENDCHAR
STARTCHAR 0023
ENCODING 35
SWIDTH 617 0
DWIDTH 21 0
BBX 20 26 0 -1
BITMAP
00E1C0
00E1C0
00E380
01C380
01C380
01C380
01C700
1FFFF0
1FFFE0
3FFFE0
038E00
038E00
070E00
070E00
071E00
071C00
7FFFC0
7FFF80
FFFF80
0E3800
1E3800
1C3800
1C3800
1C7000
1C7000
387000
ENDCHAR
STARTCHAR 0024
ENCODING 36
SWIDTH 558 0
DWIDTH 19 0
BBX 15 26 3 0
BITMAP
0780
0780
3FF8
7FF8
FFF8
F800
F800
F800
F800
F800
FC00
FFF0
7FFC
3FFE
007E
003E
003E
003E
003E
003E
003E
3FFE
3FFC
3FF8
0780
0780
ENDCHAR
STARTCHAR 0025
ENCODING 37
SWIDTH 735 0
DWIDTH 25 0
BBX 22 26 1 0
BITMAP
3FC060
FFE0E0
E0E0C0
E0E1C0
E0E380
E0E380
E0E700
E0E600
E0EE00
E0EC00
FFFC00
7FF800
003800
007000
0067F0
00EFFC
00DC1C
01DC1C
019C1C
039C1C
071C1C
071C1C
0E1C1C
0C1C1C
1C1FFC
180FF8
ENDCHAR
STARTCHAR 0026
ENCODING 38
SWIDTH 676 0
DWIDTH 23 0
BBX 19 26 2 -1
BITMAP
1FFC00
7FFC00
7FFC00
FFFC00
F80000
F80000
F80000
F80000
F80000
F80000
FC0000
7FFFE0
3FFFE0
7FFFE0
7C1F00
F81F00
F81F00
F81F00
F81F00
F81F00
F81F00
F81F00
FFFF00
7FFF00
7FFE00
3FFC00
ENDCHAR
STARTCHAR 0027
ENCODING 39
SWIDTH 294 0
DWIDTH 10 0
BBX 5 8 3 18
BITMAP
F8
F8
F8
70
70
70
70
70
ENDCHAR
STARTCHAR 0028
ENCODING 40
SWIDTH 294 0
DWIDTH 10 0
BBX 8 26 1 0
BITMAP
07
1F
3C
38
78
78
F8
F8
F8
F8
F8
F8
F8
F8
F8
F8
F8
F8
F8
F8
78
78
78
3C
1F
07
ENDCHAR
STARTCHAR 0029
ENCODING 41
SWIDTH 294 0
DWIDTH 10 0
BBX 8 26 1 0
BITMAP
E0
F8
3C
1E
1E
1E
1F
1F
1F
1F
1F
1F
1F
1F
1F
1F
1F
1F
1F
1F
1E
1E
1E
3C
F8
E0
ENDCHAR
STARTCHAR 002A
ENCODING 42
SWIDTH 617 0
DWIDTH 21 0
BBX 11 12 5 13
BITMAP
0E00
0E00
0E00
4E60
EEE0
FFE0
FFC0
1F00
1F80
3BC0
7BC0
1180
ENDCHAR
STARTCHAR 002B
ENCODING 43
SWIDTH 617 0
DWIDTH 21 0
BBX 17 17 2 1
BITMAP
03E000
03E000
03E000
03E000
03E000
03E000
FFFF80
FFFF80
FFFF80
FFFF80
FFFF80
03E000
03E000
03E000
03E000
03E000
03E000
ENDCHAR
STARTCHAR 002C
ENCODING 44
SWIDTH 294 0
DWIDTH 10 0
BBX 6 8 2 -3
BITMAP
78
FC
FC
FC
FC
38
F0
C0
ENDCHAR
STARTCHAR 002D
ENCODING 45
SWIDTH 352 0
DWIDTH 12 0
BBX 8 5 2 7
BITMAP
FF
FF
FF
FF
FF
ENDCHAR
STARTCHAR 002E
ENCODING 46
SWIDTH 294 0
DWIDTH 10 0
BBX 6 5 2 0
BITMAP
78
FC
FC
FC
FC
ENDCHAR
STARTCHAR 002F
ENCODING 47
SWIDTH 294 0
DWIDTH 10 0
BBX 9 26 0 0
BITMAP
0180
0180
0380
0380
0300
0300
0700
0700
0600
0600
0E00
0C00
0C00
1C00
1C00
1800
1800
3800
3800
3000
3000
7000
7000
6000
6000
E000
ENDCHAR
STARTCHAR 0030
ENCODING 48
SWIDTH 617 0
DWIDTH 21 0
BBX 17 26 2 0
BITMAP
0FF800
3FFE00
7FFF00
7FFF00
FC1F80
F80F80
F80F80
F80F80
F80F80
F80F80
F80F80
F80F80
F80F80
F80F80
F80F80
F80F80
F80F80
F80F80
F80F80
F80F80
F80F80
FC1F80
7FFF00
7FFF00
3FFE00
1FF800
ENDCHAR
STARTCHAR 0031
ENCODING 49
SWIDTH 352 0
DWIDTH 12 0
BBX 7 26 3 0
BITMAP
F8
FC
FC
FE
3E
3E
3E
3E
3E
3E
3E
3E
3E
3E
3E
3E
3E
3E
3E
3E
3E
3E
3E
3E
3E
3E
ENDCHAR
STARTCHAR 0032
ENCODING 50
SWIDTH 617 0
DWIDTH 21 0
BBX 16 26 2 0
BITMAP
3FF8
3FFE
3FFE
3FFF
001F
001F
001F
001F
001F
001F
003F
1FFE
7FFE
7FF8
FC00
F800
F800
F800
F800
F800
F800
F800
FFFF
FFFF
FFFF
FFFF
ENDCHAR
STARTCHAR 0033
ENCODING 51
SWIDTH 500 0
DWIDTH 17 0
BBX 14 26 2 0
BITMAP
FFF0
FFF8
FFF8
FFFC
00FC
007C
007C
007C
007C
007C
007C
3FFC
3FFC
3FFC
007C
007C
007C
007C
007C
007C
007C
00FC
FFFC
FFF8
FFF8
FFF0
ENDCHAR
STARTCHAR 0034
ENCODING 52
SWIDTH 617 0
DWIDTH 21 0
BBX 16 26 2 0
BITMAP
F81F
F81F
F81F
F81F
F81F
F81F
F81F
F81F
F81F
F81F
F81F
FC1F
7FFF
7FFF
3FFF
001F
001F
001F
001F
001F
001F
001F
001F
001F
001F
001F
ENDCHAR
STARTCHAR 0035
ENCODING 53
SWIDTH 617 0
DWIDTH 21 0
BBX 17 26 2 0
BITMAP
0FFE00
3FFE00
7FFE00
FFFE00
F80000
F80000
F80000
F80000
F80000
F80000
F80000
FFFC00
FFFF00
FFFF00
001F80
000F80
000F80
000F80
000F80
000F80
000F80
000F80
FFFF80
FFFF00
FFFE00
FFF800
ENDCHAR
STARTCHAR 0036
ENCODING 54
SWIDTH 617 0
DWIDTH 21 0
BBX 16 26 2 0
BITMAP
3FFC
7FFC
7FFC
FFFC
FC00
F800
F800
F800
F800
F800
F800
F9F8
FFFE
FFFF
FC3F
F81F
F81F
F81F
F81F
F81F
F81F
F81F
7FFF
7FFF
3FFE
0FFC
ENDCHAR
STARTCHAR 0037
ENCODING 55
SWIDTH 529 0
DWIDTH 18 0
BBX 14 26 1 0
BITMAP
FFF0
FFF8
FFF8
FFFC
00FC
007C
007C
007C
007C
007C
007C
007C
007C
007C
007C
007C
007C
007C
007C
007C
007C
007C
007C
007C
007C
007C
ENDCHAR
STARTCHAR 0038
ENCODING 56
SWIDTH 588 0
DWIDTH 20 0
BBX 16 26 2 0
BITMAP
1FF8
7FFE
7FFF
FC3F
F81F
F81F
F81F
F81F
F81F
F81F
F81F
FC3F
7FFE
7FFE
FC3F
F81F
F81F
F81F
F81F
F81F
F81F
F81F
FC3F
FFFF
7FFE
1FF8
ENDCHAR
STARTCHAR 0039
ENCODING 57
SWIDTH 617 0
DWIDTH 21 0
BBX 17 26 2 0
BITMAP
3FF800
7FFE00
FFFF00
FF7F00
F80F80
F80F80
F80F80
F80F80
F80F80
F80F80
F80F80
F80F80
FC1F80
7FFF80
7FFF80
1FCF80
000F80
000F80
000F80
000F80
000F80
001F80
3FFF80
3FFF00
3FFF00
3FFE00
ENDCHAR
STARTCHAR 003A
ENCODING 58
SWIDTH 294 0
DWIDTH 10 0
BBX 6 19 2 0
BITMAP
FC
FC
FC
FC
78
00
00
00
00
00
00
00
00
00
78
FC
FC
FC
FC
ENDCHAR
STARTCHAR 003B
ENCODING 59
SWIDTH 294 0
DWIDTH 10 0
BBX 6 22 2 -3
BITMAP
FC
FC
FC
FC
78
00
00
00
00
00
00
00
00
00
78
FC
FC
FC
FC
38
F0
C0
ENDCHAR
STARTCHAR 003C
ENCODING 60
SWIDTH 235 0
DWIDTH 8 0
BBX 6 12 1 2
BITMAP
1C
38
38
70
70
E0
E0
70
70
38
38
1C
ENDCHAR
STARTCHAR 003D
ENCODING 61
SWIDTH 617 0
DWIDTH 21 0
BBX 18 13 1 3
BITMAP
7FFFC0
FFFFC0
FFFFC0
FFFFC0
7FFF80
000000
000000
000000
7FFFC0
FFFFC0
FFFFC0
FFFFC0
7FFF80
ENDCHAR
STARTCHAR 003E
ENCODING 62
SWIDTH 235 0
DWIDTH 8 0
BBX 6 12 1 2
BITMAP
E0
60
70
30
38
18
1C
38
38
70
60
E0
ENDCHAR
STARTCHAR 003F
ENCODING 63
SWIDTH 617 0
DWIDTH 21 0
BBX 13 26 5 0
BITMAP
FFC0
FFF0
FFF0
FFF8
00F8
00F8
00F8
00F8
00F8
00F8
01F8
1FF8
7FF0
7FE0
FF00
FC00
F800
F800
F800
F800
0000
7000
F800
F800
F800
F800
ENDCHAR
STARTCHAR 0040
ENCODING 64
SWIDTH 882 0
DWIDTH 30 0
BBX 24 26 3 1
BITMAP
07FFE0
1FFFF8
7C003E
60000E
E00007
C00003
C0FF03
C1FF83
C3C3C3
C3C3C3
C3C3C3
C3C3C3
C3FFFF
C3FFFF
C3C3C0
C3C3C0
C3C3C0
C3C3C0
C3C3C0
C3C3C0
C00000
E00000
600000
780000
1FF000
07FFC0
ENDCHAR
STARTCHAR 0041
ENCODING 65
SWIDTH 617 0
DWIDTH 21 0
BBX 16 26 2 0
BITMAP
1FF8
3FFC
7FFE
FFFF
FC3F
F81F
F81F
F81F
F81F
F81F
F81F
F81F
F81F
FFFF
FFFF
FFFF
F81F
F81F
F81F
F81F
F81F
F81F
F81F
F81F
F81F
F81F
ENDCHAR
STARTCHAR 0042
ENCODING 66
SWIDTH 588 0
DWIDTH 20 0
BBX 16 26 2 0
BITMAP
1FF8
3FFC
7FFE
FFFF
FC3F
F81F
F81F
F81F
F81F
F81F
F81F
F83E
FFFE
FFF8
FFFE
F83E
F81F
F81F
F81F
F81F
F81F
F83F
FFFF
FFFE
FFFE
FFFC
ENDCHAR
STARTCHAR 0043
ENCODING 67
SWIDTH 500 0
DWIDTH 17 0
BBX 14 26 2 0
BITMAP
1FFC
7FFC
7FFC
7FFC
FC00
F800
F800
F800
F800
F800
F800
F800
F800
F800
F800
F800
F800
F800
F800
F800
F800
FC00
FFFC
7FFC
7FFC
3FFC
ENDCHAR
STARTCHAR 0044
ENCODING 68
SWIDTH 588 0
DWIDTH 20 0
BBX 16 26 2 0
BITMAP
FFFC
FFFE
FFFE
FFFF
F83F
F81F
F81F
F81F
F81F
F81F
F81F
F81F
F81F
F81F
F81F
F81F
F81F
F81F
F81F
F81F
F81F
F83F
FFFF
FFFE
FFFE
FFFC
ENDCHAR
STARTCHAR 0045
ENCODING 69
SWIDTH 500 0
DWIDTH 17 0
BBX 14 26 2 0
BITMAP
1FFC
7FFC
7FFC
7FFC
FC00
F800
F800
F800
F800
F800
F800
FFF0
FFF0
FFF0
F800
F800
F800
F800
F800
F800
F800
FC00
FFFC
7FFC
7FFC
3FFC
ENDCHAR
STARTCHAR 0046
ENCODING 70
SWIDTH 500 0
DWIDTH 17 0
BBX 14 26 2 0
BITMAP
1FFC
7FFC
7FFC
7FFC
FC00
F800
F800
F800
F800
F800
F800
FFF0
FFF0
FFF0
F800
F800
F800
F800
F800
F800
F800
F800
F800
F800
F800
F800
ENDCHAR
STARTCHAR 0047
ENCODING 71
SWIDTH 588 0
DWIDTH 20 0
BBX 16 26 2 0
BITMAP
1FFC
7FFC
7FFC
7FFC
FC00
F800
F800
F800
F800
F800
F800
F800
F800
F8FF
F8FF
F8FF
F81F
F81F
F81F
F81F
F81F
FC3F
FFFF
7FFF
7FE7
3FC1
ENDCHAR
STARTCHAR 0048
ENCODING 72
SWIDTH 617 0
DWIDTH 21 0
BBX 16 26 2 0
BITMAP
F81F
F81F
F81F
F81F
F81F
F81F
F81F
F81F
F81F
F81F
F81F
FFFF
FFFF
FFFF
F81F
F81F
F81F
F81F
F81F
F81F
F81F
F81F
F81F
F81F
F81F
F81F
ENDCHAR
STARTCHAR 0049
ENCODING 73
SWIDTH 264 0
DWIDTH 9 0
BBX 5 26 2 0
BITMAP
F8
F8
F8
F8
F8
F8
F8
F8
F8
F8
F8
F8
F8
F8
F8
F8
F8
F8
F8
F8
F8
F8
F8
F8
F8
F8
ENDCHAR
STARTCHAR 004A
ENCODING 74
SWIDTH 529 0
DWIDTH 18 0
BBX 14 26 1 0
BITMAP
007C
007C
007C
007C
007C
007C
007C
007C
007C
007C
007C
007C
007C
007C
007C
007C
007C
007C
007C
007C
007C
00FC
FFFC
FFF8
FFF8
FFF0
ENDCHAR
STARTCHAR 004B
ENCODING 75
SWIDTH 588 0
DWIDTH 20 0
BBX 16 26 2 0
BITMAP
F81F
F81E
F83E
F87C
F87C
F8F8
F8F8
F9F0
F9F0
FBE0
FBE0
FFC0
FFF8
FFFC
FFFE
F83F
F81F
F81F
F81F
F81F
F81F
F81F
F81F
F81F
F81F
F81F
ENDCHAR
STARTCHAR 004C
ENCODING 76
SWIDTH 500 0
DWIDTH 17 0
BBX 14 26 2 0
BITMAP
F800
F800
F800
F800
F800
F800
F800
F800
F800
F800
F800
F800
F800
F800
F800
F800
F800
F800
F800
F800
F800
FC00
FFFC
7FFC
7FFC
3FFC
ENDCHAR
STARTCHAR 004D
ENCODING 77
SWIDTH 941 0
DWIDTH 32 0
BBX 27 26 2 0
BITMAP
1FFFFF00
3FFFFF80
7FFFFFC0
FFFFFFE0
FC3F87E0
F81F03E0
F81F03E0
F81F03E0
F81F03E0
F81F03E0
F81F03E0
F81F03E0
F81F03E0
F81F03E0
F81F03E0
F81F03E0
F81F03E0
F81F03E0
F81F03E0
F81F03E0
F81F03E0
F81F03E0
F81F03E0
F81F03E0
F81F03E0
F81F03E0
ENDCHAR
STARTCHAR 004E
ENCODING 78
SWIDTH 617 0
DWIDTH 21 0
BBX 16 26 2 0
BITMAP
1FF8
3FFC
7FFE
FFFF
FC3F
F81F
F81F
F81F
F81F
F81F
F81F
F81F
F81F
F81F
F81F
F81F
F81F
F81F
F81F
F81F
F81F
F81F
F81F
F81F
F81F
F81F
ENDCHAR
STARTCHAR 004F
ENCODING 79
SWIDTH 588 0
DWIDTH 20 0
BBX 17 26 2 0
BITMAP
0FF800
3FFE00
7FFF00
7FFF00
FC1F80
F80F80
F80F80
F80F80
F80F80
F80F80
F80F80
F80F80
F80F80
F80F80
F80F80
F80F80
F80F80
F80F80
F80F80
F80F80
F80F80
FC1F80
7FFF00
7FFF00
3FFE00
1FF800
ENDCHAR
STARTCHAR 0050
ENCODING 80
SWIDTH 558 0
DWIDTH 19 0
BBX 16 26 2 0
BITMAP
1FF0
3FFC
7FFE
FFFE
FC3F
F81F
F81F
F81F
F81F
F81F
F81F
F81F
F81F
F83F
FFFE
FFFE
FFFC
F800
F800
F800
F800
F800
F800
F800
F800
F800
ENDCHAR
STARTCHAR 0051
ENCODING 81
SWIDTH 588 0
DWIDTH 20 0
BBX 17 29 2 -3
BITMAP
0FF800
3FFE00
7FFF00
7FFF00
FC1F80
F80F80
F80F80
F80F80
F80F80
F80F80
F80F80
F80F80
F80F80
F80F80
F80F80
F80F80
F80F80
F80F80
F80F80
F80F80
F80F80
FC0F80
FC1F00
7FFF00
7FFF00
1FFC00
03E000
03E000
03E000
ENDCHAR
STARTCHAR 0052
ENCODING 82
SWIDTH 588 0
DWIDTH 20 0
BBX 16 26 2 0
BITMAP
1FF8
3FFE
7FFE
FFFF
FC3F
F81F
F81F
F81F
F81F
F81F
F81F
F83F
FFFE
FFF8
FFFE
F83F
F81F
F81F
F81F
F81F
F81F
F81F
F81F
F81F
F81F
F81F
ENDCHAR
STARTCHAR 0053
ENCODING 83
SWIDTH 558 0
DWIDTH 19 0
BBX 16 26 2 0
BITMAP
1FFC
7FFC
7FFC
FFFC
F800
F800
F800
F800
F800
F800
FC00
7FF8
7FFE
1FFE
003F
001F
001F
001F
001F
001F
001F
001F
3FFF
3FFE
3FFE
3FF8
ENDCHAR
STARTCHAR 0054
ENCODING 84
SWIDTH 441 0
DWIDTH 15 0
BBX 15 26 0 0
BITMAP
FFFE
FFFE
FFFE
FFFE
07C0
07C0
07C0
07C0
07C0
07C0
07C0
07C0
07C0
07C0
07C0
07C0
07C0
07C0
07C0
07C0
07C0
07C0
07C0
07C0
07C0
07C0
ENDCHAR
STARTCHAR 0055
ENCODING 85
SWIDTH 617 0
DWIDTH 21 0
BBX 17 26 2 0
BITMAP
F80F80
F80F80
F80F80
F80F80
F80F80
F80F80
F80F80
F80F80
F80F80
F80F80
F80F80
F80F80
F80F80
F80F80
F80F80
F80F80
F80F80
F80F80
F80F80
F80F80
F80F80
FC1F80
FF7F80
7FFF00
7FFF00
1FFC00
ENDCHAR
STARTCHAR 0056
ENCODING 86
SWIDTH 529 0
DWIDTH 18 0
BBX 16 26 1 0
BITMAP
F81F
F81E
F81E
783E
7C3E
7C3E
7C3C
7C3C
3C3C
3E7C
3E7C
3E78
1E78
1E78
1F78
1FF0
1FF0
0FF0
0FF0
0FF0
0FE0
0FE0
07E0
07E0
07E0
07C0
ENDCHAR
STARTCHAR 0057
ENCODING 87
SWIDTH 852 0
DWIDTH 29 0
BBX 27 26 1 0
BITMAP
F81F03E0
F81F03E0
F81F03C0
783F83C0
7C3F83C0
7C3F87C0
7C3F87C0
7C3F8780
3C3FC780
3E7FC780
3E7FC780
3E7FCF80
1E7BCF00
1E7BEF00
1F7BEF00
1F7BEF00
1FF1EF00
0FF1FE00
0FF1FE00
0FF1FE00
0FF1FE00
07E0FC00
07E0FC00
07E0FC00
07E0FC00
07E07C00
ENDCHAR
STARTCHAR 0058
ENCODING 88
SWIDTH 558 0
DWIDTH 19 0
BBX 15 26 2 0
BITMAP
F83E
F83E
783C
7C7C
7C78
3EF8
3EF8
1FF0
1FF0
0FE0
0FE0
0FC0
07C0
07C0
0FC0
0FE0
0FE0
1FF0
1FF0
3EF8
3EF8
7C78
7C7C
783C
F83E
F03E
ENDCHAR
STARTCHAR 0059
ENCODING 89
SWIDTH 558 0
DWIDTH 19 0
BBX 17 26 1 0
BITMAP
F80F80
F80F80
F80F80
F80F80
F80F80
F80F80
F80F80
F80F80
F80F80
F80F80
F80F80
F80F80
FC1F80
FFFF00
7FFF00
3FFE00
03E000
03E000
03E000
03E000
03E000
03E000
03E000
03E000
03E000
03E000
ENDCHAR
STARTCHAR 005A
ENCODING 90
SWIDTH 470 0
DWIDTH 16 0
BBX 14 26 1 0
BITMAP
FFFC
FFFC
FFFC
FFFC
0078
00F8
00F0
01F0
01F0
03E0
03E0
07C0
07C0
0F80
0F80
1F00
1F00
3E00
3E00
7C00
7C00
F800
FFFC
FFFC
FFFC
FFFC
ENDCHAR
STARTCHAR 005B
ENCODING 91
SWIDTH 294 0
DWIDTH 10 0
BBX 8 26 2 0
BITMAP
FF
FF
F8
F8
F8
F8
F8
F8
F8
F8
F8
F8
F8
F8
F8
F8
F8
F8
F8
F8
F8
F8
F8
F8
F8
FF
ENDCHAR
STARTCHAR 005C
ENCODING 92
SWIDTH 294 0
DWIDTH 10 0
BBX 9 26 0 0
BITMAP
E000
6000
6000
7000
7000
3000
3000
3800
3800
1800
1800
1C00
1C00
0C00
0C00
0E00
0600
0600
0700
0700
0300
0300
0380
0380
0180
0180
ENDCHAR
STARTCHAR 005D
ENCODING 93
SWIDTH 294 0
DWIDTH 10 0
BBX 8 26 0 0
BITMAP
FF
1F
1F
1F
1F
1F
1F
1F
1F
1F
1F
1F
1F
1F
1F
1F
1F
1F
1F
1F
1F
1F
1F
1F
FF
FF
ENDCHAR
STARTCHAR 005E
ENCODING 94
SWIDTH 352 0
DWIDTH 12 0
BBX 10 5 1 20
BITMAP
1E00
3F00
7F00
7380
E1C0
ENDCHAR
STARTCHAR 005F
ENCODING 95
SWIDTH 558 0
DWIDTH 19 0
BBX 19 2 0 -5
BITMAP
FFFFE0
FFFFE0
ENDCHAR
STARTCHAR 0060
ENCODING 96
SWIDTH 235 0
DWIDTH 8 0
BBX 6 5 1 20
BITMAP
F0
F0
78
38
3C
ENDCHAR
STARTCHAR 0061
ENCODING 97
SWIDTH 617 0
DWIDTH 21 0
BBX 16 19 2 0
BITMAP
1FF8
7FFE
7FFE
F81F
F81F
F81F
F81F
F81F
FFFF
FFFF
FFFF
F81F
F81F
F81F
F81F
F81F
F81F
F81F
F81F
ENDCHAR
STARTCHAR 0062
ENCODING 98
SWIDTH 588 0
DWIDTH 20 0
BBX 16 19 2 0
BITMAP
1FF8
7FFE
7FFF
F81F
F81F
F81F
F81F
F83F
FFFC
FFFC
F83E
F81F
F81F
F81F
F81F
F83F
FFFF
FFFE
FFFC
ENDCHAR
STARTCHAR 0063
ENCODING 99
SWIDTH 500 0
DWIDTH 17 0
BBX 14 19 2 0
BITMAP
3FFC
7FFC
7FFC
FC00
F800
F800
F800
F800
F800
F800
F800
F800
F800
F800
F800
FC00
FFFC
7FFC
3FFC
ENDCHAR
STARTCHAR 0064
ENCODING 100
SWIDTH 588 0
DWIDTH 20 0
BBX 16 19 2 0
BITMAP
FFFC
FFFE
FFFF
F83F
F81F
F81F
F81F
F81F
F81F
F81F
F81F
F81F
F81F
F81F
F81F
F83F
FFFF
FFFE
FFFC
ENDCHAR
STARTCHAR 0065
ENCODING 101
SWIDTH 500 0
DWIDTH 17 0
BBX 14 19 2 0
BITMAP
3FFC
7FFC
7FFC
FC00
F800
F800
F800
FFF0
FFF0
FFF0
F800
F800
F800
F800
F800
FC00
FFFC
7FFC
3FFC
ENDCHAR
STARTCHAR 0066
ENCODING 102
SWIDTH 500 0
DWIDTH 17 0
BBX 14 19 2 0
BITMAP
3FFC
7FFC
7FFC
FC00
F800
F800
F800
FFF0
FFF0
FFF0
F800
F800
F800
F800
F800
F800
F800
F800
F800
ENDCHAR
STARTCHAR 0067
ENCODING 103
SWIDTH 588 0
DWIDTH 20 0
BBX 16 19 2 0
BITMAP
3FFC
7FFC
7FFC
FC00
F800
F800
F800
F800
F8FF
F8FF
F8FF
F81F
F81F
F81F
F81F
FC3F
FFFF
7FFF
3FC1
ENDCHAR
STARTCHAR 0068
ENCODING 104
SWIDTH 617 0
DWIDTH 21 0
BBX 16 20 2 0
BITMAP
F81F
F81F
F81F
F81F
F81F
F81F
F81F
F81F
FFFF
FFFF
FFFF
F81F
F81F
F81F
F81F
F81F
F81F
F81F
F81F
F81F
ENDCHAR
STARTCHAR 0069
ENCODING 105
SWIDTH 264 0
DWIDTH 9 0
BBX 5 19 2 0
BITMAP
F8
F8
F8
F8
F8
F8
F8
F8
F8
F8
F8
F8
F8
F8
F8
F8
F8
F8
F8
ENDCHAR
STARTCHAR 006A
ENCODING 106
SWIDTH 529 0
DWIDTH 18 0
BBX 14 19 1 0
BITMAP
007C
007C
007C
007C
007C
007C
007C
007C
007C
007C
007C
007C
007C
007C
007C
00FC
FFFC
FFF8
FFF0
ENDCHAR
STARTCHAR 006B
ENCODING 107
SWIDTH 588 0
DWIDTH 20 0
BBX 16 19 2 0
BITMAP
F81F
F83E
F87C
F878
F8F0
F9F0
FBE0
FFC0
FFF8
FFFE
FFFF
F83F
F81F
F81F
F81F
F81F
F81F
F81F
F81F
ENDCHAR
STARTCHAR 006C
ENCODING 108
SWIDTH 500 0
DWIDTH 17 0
BBX 14 19 2 0
BITMAP
F800
F800
F800
F800
F800
F800
F800
F800
F800
F800
F800
F800
F800
F800
F800
FC00
FFFC
7FFC
3FFC
ENDCHAR
STARTCHAR 006D
ENCODING 109
SWIDTH 941 0
DWIDTH 32 0
BBX 27 19 2 0
BITMAP
1FFFFF00
7FFFFFC0
7FFFFFC0
F81F03E0
F81F03E0
F81F03E0
F81F03E0
F81F03E0
F81F03E0
F81F03E0
F81F03E0
F81F03E0
F81F03E0
F81F03E0
F81F03E0
F81F03E0
F81F03E0
F81F03E0
F81F03E0
ENDCHAR
STARTCHAR 006E
ENCODING 110
SWIDTH 617 0
DWIDTH 21 0
BBX 16 19 2 0
BITMAP
1FF8
7FFE
7FFE
F81F
F81F
F81F
F81F
F81F
F81F
F81F
F81F
F81F
F81F
F81F
F81F
F81F
F81F
F81F
F81F
ENDCHAR
STARTCHAR 006F
ENCODING 111
SWIDTH 588 0
DWIDTH 20 0
BBX 17 19 2 0
BITMAP
1FFC00
7FFF00
7FFF00
FC1F80
F80F80
F80F80
F80F80
F80F80
F80F80
F80F80
F80F80
F80F80
F80F80
F80F80
F80F80
FC1F80
7FFF00
7FFF00
1FFC00
ENDCHAR
STARTCHAR 0070
ENCODING 112
SWIDTH 558 0
DWIDTH 19 0
BBX 16 19 2 0
BITMAP
1FF8
7FFE
7FFE
F81F
F81F
F81F
F81F
F81F
F81F
FFFF
FFFE
FFFC
F800
F800
F800
F800
F800
F800
F800
ENDCHAR
STARTCHAR 0071
ENCODING 113
SWIDTH 588 0
DWIDTH 20 0
BBX 17 21 2 -3
BITMAP
1FFC00
7FFF00
7FFF00
FC1F80
F80F80
F80F80
F80F80
F80F80
F80F80
F80F80
F80F80
F80F80
F80F80
F80F80
F80F80
FC1F80
FFFF80
7FFF00
3FFE00
03E000
03E000
ENDCHAR
STARTCHAR 0072
ENCODING 114
SWIDTH 588 0
DWIDTH 20 0
BBX 16 19 2 0
BITMAP
1FF8
7FFE
7FFF
F81F
F81F
F81F
F81F
F81F
F83E
FFFC
FFFE
F83F
F81F
F81F
F81F
F81F
F81F
F81F
F81F
ENDCHAR
STARTCHAR 0073
ENCODING 115
SWIDTH 558 0
DWIDTH 19 0
BBX 16 19 2 0
BITMAP
1FFC
7FFC
FFFC
F800
F800
F800
F800
FC00
FFFC
7FFE
1FFF
003F
001F
001F
001F
001F
3FFF
3FFE
3FF8
ENDCHAR
STARTCHAR 0074
ENCODING 116
SWIDTH 441 0
DWIDTH 15 0
BBX 15 19 0 0
BITMAP
FFFE
FFFE
FFFE
07C0
07C0
07C0
07C0
07C0
07C0
07C0
07C0
07C0
07C0
07C0
07C0
07C0
07C0
07C0
07C0
ENDCHAR
STARTCHAR 0075
ENCODING 117
SWIDTH 617 0
DWIDTH 21 0
BBX 17 19 2 0
BITMAP
F80F80
F80F80
F80F80
F80F80
F80F80
F80F80
F80F80
F80F80
F80F80
F80F80
F80F80
F80F80
F80F80
F80F80
F80F80
F80F80
FFFF80
7FFF00
3FFC00
ENDCHAR
STARTCHAR 0076
ENCODING 118
SWIDTH 529 0
DWIDTH 18 0
BBX 16 19 1 0
BITMAP
F81F
F81E
783E
7C3E
7C3C
7C3C
3C3C
3E7C
3E78
1E78
1E78
1FF0
0FF0
0FF0
0FF0
0FE0
07E0
07E0
07C0
ENDCHAR
STARTCHAR 0077
ENCODING 119
SWIDTH 852 0
DWIDTH 29 0
BBX 27 19 1 0
BITMAP
F81F03E0
F81F03E0
783F83C0
7C3F87C0
7C3F87C0
7C3F8780
3C3FC780
3E7FC780
3E7BCF80
1E7BCF00
1F7BEF00
1FF3EF00
0FF1FE00
0FF1FE00
0FF1FE00
07E0FE00
07E0FC00
07E0FC00
07E07C00
ENDCHAR
STARTCHAR 0078
ENCODING 120
SWIDTH 558 0
DWIDTH 19 0
BBX 15 19 2 0
BITMAP
F83E
F83E
7C7C
3C78
3EF8
1FF0
1FF0
0FE0
0FC0
07C0
07C0
0FE0
1FF0
1FF0
3EF8
3C78
7C7C
F83E
F83E
ENDCHAR
STARTCHAR 0079
ENCODING 121
SWIDTH 558 0
DWIDTH 19 0
BBX 17 19 1 1
BITMAP
F80F80
F80F80
F80F80
F80F80
F80F80
F80F80
F80F80
F80F80
FC1F80
FFFF00
7FFE00
03E000
03E000
03E000
03E000
03E000
03E000
03E000
03E000
ENDCHAR
STARTCHAR 007A
ENCODING 122
SWIDTH 470 0
DWIDTH 16 0
BBX 14 19 1 0
BITMAP
FFFC
FFFC
FFFC
0078
00F8
01F0
01E0
03E0
07C0
0780
0F80
1F00
1E00
3E00
7C00
7800
FFFC
FFFC
FFFC
ENDCHAR
STARTCHAR 007B
ENCODING 123
SWIDTH 294 0
DWIDTH 10 0
BBX 10 26 0 0
BITMAP
3FC0
3FC0
3E00
3E00
3E00
3E00
3E00
3E00
3E00
3E00
7E00
FE00
7E00
7E00
3E00
3E00
3E00
3E00
3E00
3E00
3E00
3E00
3E00
3E00
3E00
3FC0
ENDCHAR
STARTCHAR 007C
ENCODING 124
SWIDTH 264 0
DWIDTH 9 0
BBX 4 31 2 -3
BITMAP
F0
F0
F0
F0
F0
F0
F0
F0
F0
F0
F0
F0
F0
F0
F0
F0
F0
F0
F0
F0
F0
F0
F0
F0
F0
F0
F0
F0
F0
F0
F0
ENDCHAR
STARTCHAR 007D
ENCODING 125
SWIDTH 294 0
DWIDTH 10 0
BBX 10 26 0 0
BITMAP
FF00
1F00
1F00
1F00
1F00
1F00
1F00
1F00
1F00
1F00
1F80
1FC0
1F80
1F80
1F00
1F00
1F00
1F00
1F00
1F00
1F00
1F00
1F00
1F00
FF00
FF00
ENDCHAR
STARTCHAR 007E
ENCODING 126
SWIDTH 382 0
DWIDTH 13 0
BBX 11 3 1 21
BITMAP
7C60
FFE0
FFC0
ENDCHAR
STARTCHAR 00A0
ENCODING 160
SWIDTH 617 0
DWIDTH 21 0
BBX 0 0 0 0
BITMAP
ENDCHAR
STARTCHAR 00A1
ENCODING 161
SWIDTH 294 0
DWIDTH 10 0
BBX 5 26 2 -1
BITMAP
F8
F8
F8
F8
70
00
F8
F8
F8
F8
F8
F8
F8
F8
F8
F8
F8
F8
F8
F8
F8
F8
F8
F8
F8
F8
ENDCHAR
STARTCHAR 00A2
ENCODING 162
SWIDTH 617 0
DWIDTH 21 0
BBX 11 21 4 2
BITMAP
0600
0600
0600
3FE0
7FE0
FC00
F800
F800
F800
F800
F800
F800
F800
F800
F800
F800
7FE0
7FE0
0600
0600
0600
ENDCHAR
STARTCHAR 00A3
ENCODING 163
SWIDTH 823 0
DWIDTH 28 0
BBX 25 26 2 0
BITMAP
0007FC00
001FFF00
003FFF00
007FFF00
007C1F80
00F81F80
00F80F00
00F01F00
01F01F00
01F00000
01F00000
1FFE0000
1FFE0000
1FFE0000
03E00000
03E00000
03C00000
07C00000
07C00000
07C00000
07C00000
07800000
FFFFE000
FFFFE000
FFFFE000
FFFFE000
ENDCHAR
STARTCHAR 00A4
ENCODING 164
SWIDTH 558 0
DWIDTH 19 0
BBX 13 16 3 9
BITMAP
7070
38E0
3DC0
7FF0
7FF0
FFF8
C018
C018
C018
C018
FFF8
7FF0
7FF0
3DC0
38E0
7070
ENDCHAR
STARTCHAR 00A5
ENCODING 165
SWIDTH 558 0
DWIDTH 19 0
BBX 17 26 1 0
BITMAP
F80F80
F80F80
F80F80
F80F80
F80F80
F80F80
F80F80
F80F80
FC1F80
FFFF00
7FFF00
3FFE00
03E000
FFFF80
FFFF80
FFFF80
03E000
FFFF80
FFFF80
FFFF80
03E000
03E000
03E000
03E000
03E000
03E000
ENDCHAR
STARTCHAR 00A7
ENCODING 167
SWIDTH 676 0
DWIDTH 23 0
BBX 18 26 3 0
BITMAP
01FFC0
03FF80
07FF80
0FFF80
0F0000
1F0000
1E0000
1E0000
3FFE00
3FFF00
3FFF80
7C1F80
781F00
781F00
781F00
7C1F00
7FFF00
7FFE00
3FFE00
003E00
007C00
007C00
FFF800
FFF800
FFF000
FFE000
ENDCHAR
STARTCHAR 00A8
ENCODING 168
SWIDTH 323 0
DWIDTH 11 0
BBX 11 4 0 21
BITMAP
FBE0
FBE0
FBE0
FBE0
ENDCHAR
STARTCHAR 00A9
ENCODING 169
SWIDTH 500 0
DWIDTH 17 0
BBX 15 15 1 10
BITMAP
1FF0
701C
C006
87E2
8C02
8C02
8C02
8C02
8C02
8C02
8C02
8E02
C7E6
600C
3FF8
ENDCHAR
STARTCHAR 00AB
ENCODING 171
SWIDTH 382 0
DWIDTH 13 0
BBX 11 12 1 2
BITMAP
1CE0
38C0
39C0
7380
7380
E700
E300
7380
7180
39C0
38C0
1CE0
ENDCHAR
STARTCHAR 00AC
ENCODING 172
SWIDTH 794 0
DWIDTH 27 0
BBX 21 7 2 4
BITMAP
FFFFF8
FFFFF8
FFFFF8
FFFFF8
000078
000078
000078
ENDCHAR
STARTCHAR 00AE
ENCODING 174
SWIDTH 500 0
DWIDTH 17 0
BBX 15 15 1 10
BITMAP
1FF0
701C
C006
87E2
8C72
8C72
8C72
8FC2
8C72
8C72
8C72
8C72
C006
600C
3FF8
ENDCHAR
STARTCHAR 00AF
ENCODING 175
SWIDTH 323 0
DWIDTH 11 0
BBX 10 3 0 21
BITMAP
FFC0
FFC0
FFC0
ENDCHAR
STARTCHAR 00B0
ENCODING 176
SWIDTH 617 0
DWIDTH 21 0
BBX 9 9 5 16
BITMAP
1E00
7F00
7380
C180
C180
C180
E380
7F00
3E00
ENDCHAR
STARTCHAR 00B1
ENCODING 177
SWIDTH 617 0
DWIDTH 21 0
BBX 17 25 2 1
BITMAP
03E000
03E000
03E000
03E000
03E000
03E000
FFFF80
FFFF80
FFFF80
FFFF80
FFFF80
03E000
03E000
03E000
03E000
03E000
03E000
008000
000000
000000
7FFF00
FFFF80
FFFF80
FFFF80
FFFF80
ENDCHAR
STARTCHAR 00B4
ENCODING 180
SWIDTH 235 0
DWIDTH 8 0
BBX 6 5 1 20
BITMAP
3C
78
78
F0
E0
ENDCHAR
STARTCHAR 00B5
ENCODING 181
SWIDTH 617 0
DWIDTH 21 0
BBX 16 26 2 0
BITMAP
1FFF
3FFF
7FFF
FFFF
F800
F800
F800
F800
F800
F800
F800
F81F
F81F
F81F
FC3F
7FFF
7FFF
1FDF
001F
001F
001F
001F
3FFF
3FFE
3FFE
3FF8
ENDCHAR
STARTCHAR 00B6
ENCODING 182
SWIDTH 617 0
DWIDTH 21 0
BBX 15 30 3 -5
BITMAP
1FF0
7FF8
FFFC
FFFE
FFFE
FFFE
FFFE
FFFE
FFFE
FFFE
7FFE
7FFE
3FFE
07FE
003E
003E
003E
003E
003E
003E
003E
003E
003E
003E
003E
003E
003E
003E
003E
003E
ENDCHAR
STARTCHAR 00B7
ENCODING 183
SWIDTH 294 0
DWIDTH 10 0
BBX 6 5 2 12
BITMAP
7C
FC
FC
FC
FC
ENDCHAR
STARTCHAR 00B8
ENCODING 184
SWIDTH 294 0
DWIDTH 10 0
BBX 7 7 1 -7
BITMAP
10
30
3C
0E
0E
FC
F8
ENDCHAR
STARTCHAR 00BB
ENCODING 187
SWIDTH 382 0
DWIDTH 13 0
BBX 11 12 1 2
BITMAP
E700
6300
7380
3180
39C0
18C0
1CE0
38C0
39C0
7180
6380
E300
ENDCHAR
STARTCHAR 00BF
ENCODING 191
SWIDTH 617 0
DWIDTH 21 0
BBX 13 26 2 0
BITMAP
00F8
00F8
00F8
00F8
0070
0000
0000
00F8
00F8
00F8
00F8
00F8
01F8
1FF0
7FF0
7FC0
FC00
F800
F800
F800
F800
F800
FFF8
7FF8
7FF8
1FF8
ENDCHAR
STARTCHAR 00C0
ENCODING 192
SWIDTH 617 0
DWIDTH 21 0
BBX 16 32 2 0
BITMAP
1F00
0F00
0780
0780
03C0
0000
1FF8
3FFC
7FFE
FFFF
FC3F
F81F
F81F
F81F
F81F
F81F
F81F
F81F
F81F
FFFF
FFFF
FFFF
F81F
F81F
F81F
F81F
F81F
F81F
F81F
F81F
F81F
F81F
ENDCHAR
STARTCHAR 00C1
ENCODING 193
SWIDTH 617 0
DWIDTH 21 0
BBX 16 32 2 0
BITMAP
0078
00F0
00F0
01E0
01C0
0000
1FF8
3FFC
7FFE
FFFF
FC3F
F81F
F81F
F81F
F81F
F81F
F81F
F81F
F81F
FFFF
FFFF
FFFF
F81F
F81F
F81F
F81F
F81F
F81F
F81F
F81F
F81F
F81F
ENDCHAR
STARTCHAR 00C2
ENCODING 194
SWIDTH 617 0
DWIDTH 21 0
BBX 16 33 2 0
BITMAP
03C0
07E0
0FE0
0EF0
1C70
3838
0000
1FF8
3FFC
7FFE
FFFF
FC3F
F81F
F81F
F81F
F81F
F81F
F81F
F81F
F81F
FFFF
FFFF
FFFF
F81F
F81F
F81F
F81F
F81F
F81F
F81F
F81F
F81F
F81F
ENDCHAR
STARTCHAR 00C3
ENCODING 195
SWIDTH 617 0
DWIDTH 21 0
BBX 16 31 2 0
BITMAP
0F0C
1FF8
3FF0
0000
0000
1FF8
3FFC
7FFE
FFFF
FC3F
F81F
F81F
F81F
F81F
F81F
F81F
F81F
F81F
FFFF
FFFF
FFFF
F81F
F81F
F81F
F81F
F81F
F81F
F81F
F81F
F81F
F81F
ENDCHAR
STARTCHAR 00C4
ENCODING 196
SWIDTH 617 0
DWIDTH 21 0
BBX 17 31 2 0
BITMAP
3E7C00
3E7C00
3E7C00
3E7C00
000000
0FF800
3FFE00
7FFF00
7FFF00
FC1F80
F80F80
F80F80
F80F80
F80F80
F80F80
F80F80
F80F80
F80F80
FFFF80
FFFF80
FFFF80
F80F80
F80F80
F80F80
F80F80
F80F80
F80F80
F80F80
F80F80
F80F80
F80F80
ENDCHAR
STARTCHAR 00C5
ENCODING 197
SWIDTH 617 0
DWIDTH 21 0
BBX 17 33 2 0
BITMAP
01C000
03E000
063000
063000
07E000
03C000
000000
0FF800
3FFE00
7FFF00
7FFF00
FC1F80
F80F80
F80F80
F80F80
F80F80
F80F80
F80F80
F80F80
F80F80
FFFF80
FFFF80
FFFF80
F80F80
F80F80
F80F80
F80F80
F80F80
F80F80
F80F80
F80F80
F80F80
F80F80
ENDCHAR
STARTCHAR 00C6
ENCODING 198
SWIDTH 852 0
DWIDTH 29 0
BBX 25 26 2 0
BITMAP
1FFFFF80
3FFFFF80
7FFFFF80
FFFFFF80
FC3F8000
F81F0000
F81F0000
F81F0000
F81F0000
F81F0000
F81F0000
FFFFFE00
FFFFFE00
FFFFFE00
F81F0000
F81F0000
F81F0000
F81F0000
F81F0000
F81F0000
F81F0000
F81F8000
F81FFF80
F80FFF80
F80FFF80
F807FF80
ENDCHAR
STARTCHAR 00C7
ENCODING 199
SWIDTH 500 0
DWIDTH 17 0
BBX 14 33 2 -7
BITMAP
1FFC
7FFC
7FFC
7FFC
FC00
F800
F800
F800
F800
F800
F800
F800
F800
F800
F800
F800
F800
F800
F800
F800
F800
FC00
FFFC
7FFC
7FFC
3FFC
0180
01C0
01F0
0070
0070
07E0
03C0
ENDCHAR
STARTCHAR 00C8
ENCODING 200
SWIDTH 500 0
DWIDTH 17 0
BBX 14 32 2 0
BITMAP
1F00
0F00
0780
0780
03C0
0000
1FFC
7FFC
7FFC
7FFC
FC00
F800
F800
F800
F800
F800
F800
FFF0
FFF0
FFF0
F800
F800
F800
F800
F800
F800
F800
FC00
FFFC
7FFC
7FFC
3FFC
ENDCHAR
STARTCHAR 00C9
ENCODING 201
SWIDTH 500 0
DWIDTH 17 0
BBX 14 32 2 0
BITMAP
00F8
00F0
01E0
01E0
03C0
0000
1FFC
7FFC
7FFC
7FFC
FC00
F800
F800
F800
F800
F800
F800
FFF0
FFF0
FFF0
F800
F800
F800
F800
F800
F800
F800
FC00
FFFC
7FFC
7FFC
3FFC
ENDCHAR
STARTCHAR 00CA
ENCODING 202
SWIDTH 500 0
DWIDTH 17 0
BBX 14 33 2 0
BITMAP
03C0
07E0
07F0
0F70
1E38
1C1C
0000
1FFC
7FFC
7FFC
7FFC
FC00
F800
F800
F800
F800
F800
F800
FFF0
FFF0
FFF0
F800
F800
F800
F800
F800
F800
F800
FC00
FFFC
7FFC
7FFC
3FFC
ENDCHAR
STARTCHAR 00CB
ENCODING 203
SWIDTH 500 0
DWIDTH 17 0
BBX 14 31 2 0
BITMAP
1F7C
1F7C
1F7C
1F7C
0000
1FFC
7FFC
7FFC
7FFC
FC00
F800
F800
F800
F800
F800
F800
FFF0
FFF0
FFF0
F800
F800
F800
F800
F800
F800
F800
FC00
FFFC
7FFC
7FFC
3FFC
ENDCHAR
STARTCHAR 00CC
ENCODING 204
SWIDTH 264 0
DWIDTH 9 0
BBX 7 32 2 0
BITMAP
F8
78
3C
3C
1E
00
F8
F8
F8
F8
F8
F8
F8
F8
F8
F8
F8
F8
F8
F8
F8
F8
F8
F8
F8
F8
F8
F8
F8
F8
F8
F8
ENDCHAR
STARTCHAR 00CD
ENCODING 205
SWIDTH 264 0
DWIDTH 9 0
BBX 7 32 2 0
BITMAP
1E
3E
3C
78
70
00
F8
F8
F8
F8
F8
F8
F8
F8
F8
F8
F8
F8
F8
F8
F8
F8
F8
F8
F8
F8
F8
F8
F8
F8
F8
F8
ENDCHAR
STARTCHAR 00CE
ENCODING 206
SWIDTH 264 0
DWIDTH 9 0
BBX 11 33 2 0
BITMAP
1F00
1F00
3F80
7BC0
71C0
E0E0
0000
F800
F800
F800
F800
F800
F800
F800
F800
F800
F800
F800
F800
F800
F800
F800
F800
F800
F800
F800
F800
F800
F800
F800
F800
F800
F800
ENDCHAR
STARTCHAR 00CF
ENCODING 207
SWIDTH 264 0
DWIDTH 9 0
BBX 11 31 2 0
BITMAP
FBE0
FBE0
FBE0
FBE0
0000
F800
F800
F800
F800
F800
F800
F800
F800
F800
F800
F800
F800
F800
F800
F800
F800
F800
F800
F800
F800
F800
F800
F800
F800
F800
F800
ENDCHAR
STARTCHAR 00D1
ENCODING 209
SWIDTH 588 0
DWIDTH 20 0
BBX 16 31 2 0
BITMAP
0F0C
1FF8
3FF0
0000
0000
1FF8
3FFC
7FFE
FFFF
FC3F
F81F
F81F
F81F
F81F
F81F
F81F
F81F
F81F
F81F
F81F
F81F
F81F
F81F
F81F
F81F
F81F
F81F
F81F
F81F
F81F
F81F
ENDCHAR
STARTCHAR 00D2
ENCODING 210
SWIDTH 588 0
DWIDTH 20 0
BBX 17 32 2 0
BITMAP
0F0000
0F8000
078000
038000
03C000
000000
0FF800
3FFE00
7FFF00
7FFF00
FC1F80
F80F80
F80F80
F80F80
F80F80
F80F80
F80F80
F80F80
F80F80
F80F80
F80F80
F80F80
F80F80
F80F80
F80F80
F80F80
F80F80
FC1F80
7FFF00
7FFF00
3FFE00
1FF800
ENDCHAR
STARTCHAR 00D3
ENCODING 211
SWIDTH 588 0
DWIDTH 20 0
BBX 17 32 2 0
BITMAP
007800
00F000
00F000
01E000
01C000
000000
0FF800
3FFE00
7FFF00
7FFF00
FC1F80
F80F80
F80F80
F80F80
F80F80
F80F80
F80F80
F80F80
F80F80
F80F80
F80F80
F80F80
F80F80
F80F80
F80F80
F80F80
F80F80
FC1F80
7FFF00
7FFF00
3FFE00
1FF800
ENDCHAR
STARTCHAR 00D4
ENCODING 212
SWIDTH 588 0
DWIDTH 20 0
BBX 17 33 2 0
BITMAP
03E000
03E000
07F000
0F7000
0E3800
1C1C00
000000
0FF800
3FFE00
7FFF00
7FFF00
FC1F80
F80F80
F80F80
F80F80
F80F80
F80F80
F80F80
F80F80
F80F80
F80F80
F80F80
F80F80
F80F80
F80F80
F80F80
F80F80
F80F80
FC1F80
7FFF00
7FFF00
3FFE00
1FF800
ENDCHAR
STARTCHAR 00D5
ENCODING 213
SWIDTH 588 0
DWIDTH 20 0
BBX 17 31 2 0
BITMAP
0F0C00
1FF800
3FF800
000000
000000
0FF800
3FFE00
7FFF00
7FFF00
FC1F80
F80F80
F80F80
F80F80
F80F80
F80F80
F80F80
F80F80
F80F80
F80F80
F80F80
F80F80
F80F80
F80F80
F80F80
F80F80
F80F80
FC1F80
7FFF00
7FFF00
3FFE00
1FF800
ENDCHAR
STARTCHAR 00D6
ENCODING 214
SWIDTH 588 0
DWIDTH 20 0
BBX 17 31 2 0
BITMAP
1F7C00
1F7C00
1F7C00
1F7C00
000000
0FF800
3FFE00
7FFF00
7FFF00
FC1F80
F80F80
F80F80
F80F80
F80F80
F80F80
F80F80
F80F80
F80F80
F80F80
F80F80
F80F80
F80F80
F80F80
F80F80
F80F80
F80F80
FC1F80
7FFF00
7FFF00
3FFE00
1FF800
ENDCHAR
STARTCHAR 00D8
ENCODING 216
SWIDTH 588 0
DWIDTH 20 0
BBX 16 34 2 -4
BITMAP
000E
000C
001C
001C
1FF8
3FFC
7FFE
7FFE
FC7F
F87F
F87F
F8FF
F8DF
F8DF
F8DF
F9DF
F99F
F99F
FB9F
FB1F
FB1F
FF1F
FE1F
FE1F
FE1F
FE3F
7FFE
7FFE
3FFC
1FF8
3800
3800
3000
7000
ENDCHAR
STARTCHAR 00D9
ENCODING 217
SWIDTH 617 0
DWIDTH 21 0
BBX 17 32 2 0
BITMAP
1F0000
0F8000
078000
03C000
03C000
000000
F80F80
F80F80
F80F80
F80F80
F80F80
F80F80
F80F80
F80F80
F80F80
F80F80
F80F80
F80F80
F80F80
F80F80
F80F80
F80F80
F80F80
F80F80
F80F80
F80F80
F80F80
FC1F80
FF7F80
7FFF00
7FFF00
1FFC00
ENDCHAR
STARTCHAR 00DA
ENCODING 218
SWIDTH 617 0
DWIDTH 21 0
BBX 17 32 2 0
BITMAP
007C00
007800
00F000
00F000
01E000
000000
F80F80
F80F80
F80F80
F80F80
F80F80
F80F80
F80F80
F80F80
F80F80
F80F80
F80F80
F80F80
F80F80
F80F80
F80F80
F80F80
F80F80
F80F80
F80F80
F80F80
F80F80
FC1F80
FF7F80
7FFF00
7FFF00
1FFC00
ENDCHAR
STARTCHAR 00DB
ENCODING 219
SWIDTH 617 0
DWIDTH 21 0
BBX 17 33 2 0
BITMAP
03E000
03F000
07F000
0F7800
1E3C00
1C1C00
000000
F80F80
F80F80
F80F80
F80F80
F80F80
F80F80
F80F80
F80F80
F80F80
F80F80
F80F80
F80F80
F80F80
F80F80
F80F80
F80F80
F80F80
F80F80
F80F80
F80F80
F80F80
FC1F80
FF7F80
7FFF00
7FFF00
1FFC00
ENDCHAR
STARTCHAR 00DC
ENCODING 220
SWIDTH 617 0
DWIDTH 21 0
BBX 17 31 2 0
BITMAP
3E7C00
3E7C00
3E7C00
3E7C00
000000
F80F80
F80F80
F80F80
F80F80
F80F80
F80F80
F80F80
F80F80
F80F80
F80F80
F80F80
F80F80
F80F80
F80F80
F80F80
F80F80
F80F80
F80F80
F80F80
F80F80
F80F80
FC1F80
FF7F80
7FFF00
7FFF00
1FFC00
ENDCHAR
STARTCHAR 00DD
ENCODING 221
SWIDTH 558 0
DWIDTH 19 0
BBX 0 0 0 0
BITMAP
ENDCHAR
STARTCHAR 00DF
ENCODING 223
SWIDTH 558 0
DWIDTH 19 0
BBX 16 29 2 -4
BITMAP
0FF0
3FFE
7FFE
7FFF
FC3F
F81F
F81F
F81F
F81F
F81F
F83F
F9FE
F9F8
F9FE
F87F
F81F
F81F
F81F
F81F
F81F
F81F
F81F
F83F
F9FF
F9FE
F9F0
F800
F800
F800
ENDCHAR
STARTCHAR 00E0
ENCODING 224
SWIDTH 617 0
DWIDTH 21 0
BBX 16 26 2 0
BITMAP
1F00
0F00
0F00
0780
0380
0000
0000
1FF8
7FFE
7FFE
F81F
F81F
F81F
F81F
F81F
FFFF
FFFF
FFFF
F81F
F81F
F81F
F81F
F81F
F81F
F81F
F81F
ENDCHAR
STARTCHAR 00E1
ENCODING 225
SWIDTH 617 0
DWIDTH 21 0
BBX 16 26 2 0
BITMAP
00F8
00F0
01E0
01E0
03C0
0000
0000
1FF8
7FFE
7FFE
F81F
F81F
F81F
F81F
F81F
FFFF
FFFF
FFFF
F81F
F81F
F81F
F81F
F81F
F81F
F81F
F81F
ENDCHAR
STARTCHAR 00E2
ENCODING 226
SWIDTH 617 0
DWIDTH 21 0
BBX 16 26 2 0
BITMAP
07C0
07C0
0FE0
0EF0
1C70
3838
0000
1FF8
7FFE
7FFE
F81F
F81F
F81F
F81F
F81F
FFFF
FFFF
FFFF
F81F
F81F
F81F
F81F
F81F
F81F
F81F
F81F
ENDCHAR
STARTCHAR 00E3
ENCODING 227
SWIDTH 617 0
DWIDTH 21 0
BBX 16 25 2 0
BITMAP
0F0C
3FF8
3FF0
0000
0000
0000
1FF8
7FFE
7FFE
F81F
F81F
F81F
F81F
F81F
FFFF
FFFF
FFFF
F81F
F81F
F81F
F81F
F81F
F81F
F81F
F81F
ENDCHAR
STARTCHAR 00E4
ENCODING 228
SWIDTH 617 0
DWIDTH 21 0
BBX 17 25 2 0
BITMAP
3E7C00
3E7C00
3E7C00
3E7C00
000000
000000
1FFC00
7FFF00
7FFF00
F80F80
F80F80
F80F80
F80F80
F80F80
FFFF80
FFFF80
FFFF80
F80F80
F80F80
F80F80
F80F80
F80F80
F80F80
F80F80
F80F80
ENDCHAR
STARTCHAR 00E5
ENCODING 229
SWIDTH 617 0
DWIDTH 21 0
BBX 16 27 2 0
BITMAP
0180
03C0
0660
0660
0660
03C0
0180
0000
1FF8
7FFE
7FFE
F81F
F81F
F81F
F81F
F81F
FFFF
FFFF
FFFF
F81F
F81F
F81F
F81F
F81F
F81F
F81F
F81F
ENDCHAR
STARTCHAR 00E6
ENCODING 230
SWIDTH 852 0
DWIDTH 29 0
BBX 25 19 2 0
BITMAP
1FFFFF80
7FFFFF80
7FFFFF80
FC3F8000
F81F0000
F81F0000
F81F0000
F81F0000
FFFFFE00
FFFFFE00
FFFFFE00
F81F0000
F81F0000
F81F0000
F81F0000
F81F8000
F81FFF80
F80FFF80
F807FF80
ENDCHAR
STARTCHAR 00E7
ENCODING 231
SWIDTH 500 0
DWIDTH 17 0
BBX 14 26 2 -7
BITMAP
3FFC
7FFC
7FFC
FC00
F800
F800
F800
F800
F800
F800
F800
F800
F800
F800
F800
FC00
FFFC
7FFC
3FFC
0080
0180
01E0
00F0
0070
07E0
07C0
ENDCHAR
STARTCHAR 00E8
ENCODING 232
SWIDTH 500 0
DWIDTH 17 0
BBX 14 26 2 0
BITMAP
1F00
0F00
0F00
0780
0380
0000
0000
3FFC
7FFC
7FFC
FC00
F800
F800
F800
FFF0
FFF0
FFF0
F800
F800
F800
F800
F800
FC00
FFFC
7FFC
3FFC
ENDCHAR
STARTCHAR 00E9
ENCODING 233
SWIDTH 500 0
DWIDTH 17 0
BBX 14 26 2 0
BITMAP
00F0
01F0
01E0
01C0
03C0
0000
0000
3FFC
7FFC
7FFC
FC00
F800
F800
F800
FFF0
FFF0
FFF0
F800
F800
F800
F800
F800
FC00
FFFC
7FFC
3FFC
ENDCHAR
STARTCHAR 00EA
ENCODING 234
SWIDTH 500 0
DWIDTH 17 0
BBX 14 26 2 0
BITMAP
03C0
07E0
07F0
0F70
1E38
1C1C
0000
3FFC
7FFC
7FFC
FC00
F800
F800
F800
FFF0
FFF0
FFF0
F800
F800
F800
F800
F800
FC00
FFFC
7FFC
3FFC
ENDCHAR
STARTCHAR 00EB
ENCODING 235
SWIDTH 500 0
DWIDTH 17 0
BBX 13 25 2 0
BITMAP
1FF8
1FF8
1FF8
1FF8
0000
0000
3FF8
7FF8
7FF8
F800
F800
F800
F800
FFE0
FFE0
FFE0
F800
F800
F800
F800
F800
FC00
FFF8
7FF8
3FF8
ENDCHAR
STARTCHAR 00EC
ENCODING 236
SWIDTH 264 0
DWIDTH 9 0
BBX 7 26 2 0
BITMAP
F8
78
3C
3C
1E
00
00
F8
F8
F8
F8
F8
F8
F8
F8
F8
F8
F8
F8
F8
F8
F8
F8
F8
F8
F8
ENDCHAR
STARTCHAR 00ED
ENCODING 237
SWIDTH 264 0
DWIDTH 9 0
BBX 7 26 2 0
BITMAP
1E
3E
3C
78
78
00
00
F8
F8
F8
F8
F8
F8
F8
F8
F8
F8
F8
F8
F8
F8
F8
F8
F8
F8
F8
ENDCHAR
STARTCHAR 00EE
ENCODING 238
SWIDTH 264 0
DWIDTH 9 0
BBX 11 26 2 0
BITMAP
0F00
1F00
3F80
7BC0
71C0
E0E0
0000
F800
F800
F800
F800
F800
F800
F800
F800
F800
F800
F800
F800
F800
F800
F800
F800
F800
F800
F800
ENDCHAR
STARTCHAR 00EF
ENCODING 239
SWIDTH 264 0
DWIDTH 9 0
BBX 11 25 2 0
BITMAP
FBE0
FBE0
FBE0
FBE0
0000
0000
F800
F800
F800
F800
F800
F800
F800
F800
F800
F800
F800
F800
F800
F800
F800
F800
F800
F800
F800
ENDCHAR
STARTCHAR 00F1
ENCODING 241
SWIDTH 617 0
DWIDTH 21 0
BBX 16 25 2 0
BITMAP
0F0C
1FF8
3FF0
0000
0000
0000
1FF8
7FFE
7FFE
F81F
F81F
F81F
F81F
F81F
F81F
F81F
F81F
F81F
F81F
F81F
F81F
F81F
F81F
F81F
F81F
ENDCHAR
STARTCHAR 00F2
ENCODING 242
SWIDTH 588 0
DWIDTH 20 0
BBX 17 26 2 0
BITMAP
1F0000
0F0000
078000
078000
03C000
000000
000000
1FFC00
7FFF00
7FFF00
FC1F80
F80F80
F80F80
F80F80
F80F80
F80F80
F80F80
F80F80
F80F80
F80F80
F80F80
F80F80
FC1F80
7FFF00
7FFF00
1FFC00
ENDCHAR
STARTCHAR 00F3
ENCODING 243
SWIDTH 588 0
DWIDTH 20 0
BBX 17 26 2 0
BITMAP
007800
00F000
00F000
01E000
01C000
000000
000000
1FFC00
7FFF00
7FFF00
FC1F80
F80F80
F80F80
F80F80
F80F80
F80F80
F80F80
F80F80
F80F80
F80F80
F80F80
F80F80
FC1F80
7FFF00
7FFF00
1FFC00
ENDCHAR
STARTCHAR 00F4
ENCODING 244
SWIDTH 588 0
DWIDTH 20 0
BBX 17 26 2 0
BITMAP
03C000
07E000
07F000
0F7000
1E3800
1C1800
000000
1FFC00
7FFF00
7FFF00
FC1F80
F80F80
F80F80
F80F80
F80F80
F80F80
F80F80
F80F80
F80F80
F80F80
F80F80
F80F80
FC1F80
7FFF00
7FFF00
1FFC00
ENDCHAR
STARTCHAR 00F5
ENCODING 245
SWIDTH 588 0
DWIDTH 20 0
BBX 17 25 2 0
BITMAP
0F8C00
1FFC00
3FF800
000000
000000
000000
1FFC00
7FFF00
7FFF00
FC1F80
F80F80
F80F80
F80F80
F80F80
F80F80
F80F80
F80F80
F80F80
F80F80
F80F80
F80F80
FC1F80
7FFF00
7FFF00
1FFC00
ENDCHAR
STARTCHAR 00F6
ENCODING 246
SWIDTH 588 0
DWIDTH 20 0
BBX 16 25 2 0
BITMAP
1FF8
1FF8
1FF8
1FF8
0000
0000
1FF8
7FFE
7FFE
FC3F
F81F
F81F
F81F
F81F
F81F
F81F
F81F
F81F
F81F
F81F
F81F
FC3F
7FFE
7FFE
1FF8
ENDCHAR
STARTCHAR 00F7
ENCODING 247
SWIDTH 617 0
DWIDTH 21 0
BBX 18 19 1 0
BITMAP
01F000
03F000
03F000
03F000
03F000
000000
000000
7FFFC0
FFFFC0
FFFFC0
FFFFC0
7FFFC0
000000
000000
01E000
03F000
03F000
03F000
03F000
ENDCHAR
STARTCHAR 00F8
ENCODING 248
SWIDTH 588 0
DWIDTH 20 0
BBX 17 25 2 -3
BITMAP
000700
000E00
000E00
1FFC00
7FFF00
7FFF00
FC3F80
F83F80
F87F80
F86F80
F8EF80
F8CF80
F9CF80
F98F80
FB8F80
FB0F80
FF0F80
FE0F80
FE1F80
7FFF00
7FFF00
1FFC00
380000
380000
700000
ENDCHAR
STARTCHAR 00F9
ENCODING 249
SWIDTH 617 0
DWIDTH 21 0
BBX 17 26 2 0
BITMAP
0F0000
0F8000
078000
03C000
03C000
000000
000000
F80F80
F80F80
F80F80
F80F80
F80F80
F80F80
F80F80
F80F80
F80F80
F80F80
F80F80
F80F80
F80F80
F80F80
F80F80
F80F80
FFFF80
7FFF00
3FFC00
ENDCHAR
STARTCHAR 00FA
ENCODING 250
SWIDTH 617 0
DWIDTH 21 0
BBX 17 26 2 0
BITMAP
007C00
00F800
00F000
01F000
01E000
000000
000000
F80F80
F80F80
F80F80
F80F80
F80F80
F80F80
F80F80
F80F80
F80F80
F80F80
F80F80
F80F80
F80F80
F80F80
F80F80
F80F80
FFFF80
7FFF00
3FFC00
ENDCHAR
STARTCHAR 00FB
ENCODING 251
SWIDTH 617 0
DWIDTH 21 0
BBX 17 26 2 0
BITMAP
03E000
07E000
07F000
0F7800
1C3C00
000000
000000
F80F80
F80F80
F80F80
F80F80
F80F80
F80F80
F80F80
F80F80
F80F80
F80F80
F80F80
F80F80
F80F80
F80F80
F80F80
F80F80
FFFF80
7FFF00
3FFC00
ENDCHAR
STARTCHAR 00FC
ENCODING 252
SWIDTH 617 0
DWIDTH 21 0
BBX 17 25 2 0
BITMAP
1F7C00
1F7C00
1F7C00
1F7C00
000000
000000
F80F80
F80F80
F80F80
F80F80
F80F80
F80F80
F80F80
F80F80
F80F80
F80F80
F80F80
F80F80
F80F80
F80F80
F80F80
F80F80
FFFF80
7FFF00
3FFC00
ENDCHAR
STARTCHAR 00FF
ENCODING 255
SWIDTH 558 0
DWIDTH 19 0
BBX 17 25 1 0
BITMAP
1F7C00
1F7C00
1F7C00
1F7C00
000000
000000
F80F80
F80F80
F80F80
F80F80
F80F80
F80F80
F80F80
F80F80
FC1F80
FFFF00
7FFE00
03E000
03E000
03E000
03E000
03E000
03E000
03E000
03E000
ENDCHAR
STARTCHAR 0131
ENCODING 305
SWIDTH 264 0
DWIDTH 9 0
BBX 5 19 2 0
BITMAP
F8
F8
F8
F8
F8
F8
F8
F8
F8
F8
F8
F8
F8
F8
F8
F8
F8
F8
F8
ENDCHAR
STARTCHAR 0152
ENCODING 338
SWIDTH 852 0
DWIDTH 29 0
BBX 25 26 2 0
BITMAP
1FFFFF80
3FFFFF80
7FFFFF80
7FFFFF80
FC3F8000
F81F0000
F81F0000
F81F0000
F81F0000
F81F0000
F81F0000
F81FFE00
F81FFE00
F81FFE00
F81F0000
F81F0000
F81F0000
F81F0000
F81F0000
F81F0000
F81F0000
FC3F8000
FFFFFF80
7FFFFF80
3FFFFF80
1FFFFF80
ENDCHAR
STARTCHAR 0153
ENCODING 339
SWIDTH 852 0
DWIDTH 29 0
BBX 25 19 2 0
BITMAP
1FFFFF80
7FFFFF80
FFFFFF80
F83F8000
F81F0000
F81F0000
F81F0000
F81FFE00
F81FFE00
F81FFE00
F81F0000
F81F0000
F81F0000
F81F0000
F81F0000
FC3F8000
7FFFFF80
7FFFFF80
1FFFFF80
ENDCHAR
STARTCHAR 0160
ENCODING 352
SWIDTH 558 0
DWIDTH 19 0
BBX 0 0 0 0
BITMAP
ENDCHAR
STARTCHAR 0161
ENCODING 353
SWIDTH 558 0
DWIDTH 19 0
BBX 0 0 0 0
BITMAP
ENDCHAR
STARTCHAR 0178
ENCODING 376
SWIDTH 558 0
DWIDTH 19 0
BBX 17 31 1 0
BITMAP
1F7C00
1F7C00
1F7C00
1F7C00
000000
F80F80
F80F80
F80F80
F80F80
F80F80
F80F80
F80F80
F80F80
F80F80
F80F80
F80F80
F80F80
FC1F80
FFFF00
7FFF00
3FFE00
03E000
03E000
03E000
03E000
03E000
03E000
03E000
03E000
03E000
03E000
ENDCHAR
STARTCHAR 017D
ENCODING 381
SWIDTH 470 0
DWIDTH 16 0
BBX 0 0 0 0
BITMAP
ENDCHAR
STARTCHAR 017E
ENCODING 382
SWIDTH 470 0
DWIDTH 16 0
BBX 0 0 0 0
BITMAP
ENDCHAR
STARTCHAR 02C6
ENCODING 710
SWIDTH 352 0
DWIDTH 12 0
BBX 10 5 1 20
BITMAP
1E00
3F00
7F00
7380
E1C0
ENDCHAR
STARTCHAR 02C7
ENCODING 711
SWIDTH 352 0
DWIDTH 12 0
BBX 10 5 1 20
BITMAP
E1C0
F380
7F80
3F00
1E00
ENDCHAR
STARTCHAR 02D8
ENCODING 728
SWIDTH 294 0
DWIDTH 10 0
BBX 10 5 0 21
BITMAP
E0C0
71C0
7FC0
3F80
1E00
ENDCHAR
STARTCHAR 02D9
ENCODING 729
SWIDTH 294 0
DWIDTH 10 0
BBX 5 3 2 21
BITMAP
F8
F8
F8
ENDCHAR
STARTCHAR 02DA
ENCODING 730
SWIDTH 235 0
DWIDTH 8 0
BBX 6 7 1 20
BITMAP
30
78
CC
CC
CC
78
30
ENDCHAR
STARTCHAR 02DB
ENCODING 731
SWIDTH 294 0
DWIDTH 10 0
BBX 7 7 0 -6
BITMAP
18
30
70
E0
E0
7E
3C
ENDCHAR
STARTCHAR 02DC
ENCODING 732
SWIDTH 382 0
DWIDTH 13 0
BBX 11 3 1 21
BITMAP
7C60
FFE0
FFC0
ENDCHAR
STARTCHAR 02DD
ENCODING 733
SWIDTH 411 0
DWIDTH 14 0
BBX 12 5 1 20
BITMAP
7DF0
79E0
F1C0
F3C0
E380
ENDCHAR
STARTCHAR 2013
ENCODING 8211
SWIDTH 617 0
DWIDTH 21 0
BBX 16 3 2 7
BITMAP
FFFF
FFFF
FFFF
ENDCHAR
STARTCHAR 2014
ENCODING 8212
SWIDTH 1000 0
DWIDTH 34 0
BBX 29 3 2 7
BITMAP
FFFFFFF8
FFFFFFF8
FFFFFFF8
ENDCHAR
STARTCHAR 2018
ENCODING 8216
SWIDTH 294 0
DWIDTH 10 0
BBX 6 8 2 18
BITMAP
1C
7C
70
FC
FC
FC
FC
FC
ENDCHAR
STARTCHAR 2019
ENCODING 8217
SWIDTH 294 0
DWIDTH 10 0
BBX 6 8 2 18
BITMAP
FC
FC
FC
FC
7C
38
F0
80
ENDCHAR
STARTCHAR 201A
ENCODING 8218
SWIDTH 294 0
DWIDTH 10 0
BBX 6 8 2 -3
BITMAP
78
FC
FC
FC
FC
38
F0
C0
ENDCHAR
STARTCHAR 201C
ENCODING 8220
SWIDTH 500 0
DWIDTH 17 0
BBX 13 8 2 18
BITMAP
1C38
7CF8
70E0
FDF8
FDF8
FDF8
FDF8
FDF8
ENDCHAR
STARTCHAR 201D
ENCODING 8221
SWIDTH 500 0
DWIDTH 17 0
BBX 13 8 2 18
BITMAP
FDF8
FDF8
FDF8
FDF8
7CF8
3870
F1E0
8100
ENDCHAR
STARTCHAR 201E
ENCODING 8222
SWIDTH 500 0
DWIDTH 17 0
BBX 13 8 2 -3
BITMAP
78F0
FDF8
FDF8
FDF8
FDF8
3870
F1E0
C180
ENDCHAR
STARTCHAR 2020
ENCODING 8224
SWIDTH 441 0
DWIDTH 15 0
BBX 15 30 0 -3
BITMAP
07C0
07C0
07C0
07C0
07C0
07C0
07C0
07C0
FFFE
FFFE
FFFE
FFFE
07C0
07C0
07C0
07C0
07C0
07C0
07C0
07C0
07C0
07C0
07C0
07C0
07C0
07C0
07C0
07C0
07C0
0100
ENDCHAR
STARTCHAR 2022
ENCODING 8226
SWIDTH 617 0
DWIDTH 21 0
BBX 12 12 4 6
BITMAP
0F80
3FC0
7FE0
7FF0
FFF0
FFF0
FFF0
FFF0
7FF0
7FE0
3FC0
0F80
ENDCHAR
STARTCHAR 2026
ENCODING 8230
SWIDTH 1000 0
DWIDTH 34 0
BBX 28 5 3 0
BITMAP
780F01E0
FC1F83F0
FC1F83F0
FC1F83F0
FC1F83F0
ENDCHAR
STARTCHAR 2030
ENCODING 8240
SWIDTH 1058 0
DWIDTH 36 0
BBX 33 26 1 0
BITMAP
3FC0600000
FFE0E00000
E0E0C00000
E0E1C00000
E0E3800000
E0E3800000
E0E7000000
E0E6000000
E0EE000000
E0EC000000
FFFC000000
7FF8000000
0038000000
0070000000
0067F07E00
00EFFCFF80
00DC1DC380
01DC1DC380
019C1DC380
039C1DC380
071C1DC380
071C1DC380
0E1C1DC380
0C1C1DC380
1C1FFDFF80
180FF8FF00
ENDCHAR
STARTCHAR 2039
ENCODING 8249
SWIDTH 235 0
DWIDTH 8 0
BBX 6 12 1 2
BITMAP
1C
18
38
30
70
E0
60
70
30
38
18
1C
ENDCHAR
STARTCHAR 203A
ENCODING 8250
SWIDTH 235 0
DWIDTH 8 0
BBX 6 12 1 2
BITMAP
E0
60
70
30
38
18
1C
18
38
30
70
E0
ENDCHAR
STARTCHAR 2044
ENCODING 8260
SWIDTH 441 0
DWIDTH 15 0
BBX 17 26 -1 0
BITMAP
000380
000700
000600
000E00
000C00
001C00
001800
003800
003000
006000
00E000
00C000
01C000
018000
038000
030000
070000
060000
0C0000
1C0000
180000
380000
300000
700000
600000
E00000
ENDCHAR
STARTCHAR 2122
ENCODING 8482
SWIDTH 617 0
DWIDTH 21 0
BBX 16 8 1 17
BITMAP
FDFE
3333
3333
3333
3333
3333
3333
3333
ENDCHAR
STARTCHAR 2202
ENCODING 8706
SWIDTH 617 0
DWIDTH 21 0
BBX 17 26 2 0
BITMAP
0FF800
3FFE00
7FFF00
7FFF00
FC1F80
F80F80
F80F80
F80F80
F80F80
F80F80
F80F80
F80F80
FFFF80
FFFF80
FFFF80
F80F80
F80F80
F80F80
F80F80
F80F80
F80F80
FC1F80
7FFF00
7FFF00
3FFE00
1FF800
ENDCHAR
STARTCHAR 220F
ENCODING 8719
SWIDTH 558 0
DWIDTH 19 0
BBX 0 0 0 0
BITMAP
ENDCHAR
STARTCHAR 2211
ENCODING 8721
SWIDTH 558 0
DWIDTH 19 0
BBX 16 21 2 -3
BITMAP
1FF8
7FFE
7FFF
F81F
F81F
F81F
F83F
F9FF
F9F8
F9FE
F83F
F81F
F81F
F81F
F81F
F83F
F9FF
F9FE
F9F0
F800
F800
ENDCHAR
STARTCHAR 2260
ENCODING 8800
SWIDTH 558 0
DWIDTH 19 0
BBX 16 21 2 -3
BITMAP
1FF8
7FFE
7FFF
F81F
F81F
F81F
F83F
F9FF
F9F8
F9FE
F83F
F81F
F81F
F81F
F81F
F83F
F9FF
F9FE
F9F0
F800
F800
ENDCHAR
ENDFONT
